<?xml version="1.0" encoding="utf-8"?>
<!-- Generator: Adobe Illustrator 15.0.0, SVG Export Plug-In . SVG Version: 6.00 Build 0)  -->
<!DOCTYPE svg PUBLIC "-//W3C//DTD SVG 1.1//EN" "http://www.w3.org/Graphics/SVG/1.1/DTD/svg11.dtd">
<svg version="1.1" id="Layer_11" xmlns="http://www.w3.org/2000/svg" xmlns:xlink="http://www.w3.org/1999/xlink" x="0px" y="0px"
	 width="500px" height="500px" viewBox="0 0 500 500" enable-background="new 0 0 500 500" xml:space="preserve">
<g display="none">
	<linearGradient id="SVGID_1_" gradientUnits="userSpaceOnUse" x1="249.0815" y1="323.6973" x2="249.0815" y2="365.9951">
		<stop  offset="0.0051" style="stop-color:#CCCCCC"/>
		<stop  offset="0.0204" style="stop-color:#CECECE"/>
		<stop  offset="0.351" style="stop-color:#F1F1F1"/>
		<stop  offset="0.5279" style="stop-color:#FFFFFF"/>
	</linearGradient>
	<ellipse display="inline" fill="url(#SVGID_1_)" cx="249.082" cy="344.847" rx="53.326" ry="21.148"/>
	<circle display="inline" fill="none" stroke="#000000" stroke-width="4.1157" cx="249.082" cy="248.241" r="74.082"/>
</g>
<path d="M310.583,257.014c19.8,0.167,50.442,6.905,72.724,32.715c37.873,43.883,97.456,20.18,107.337-26.653
	c8.763-41.513-0.811-90.575-25.842-118.062c-37.424-41.103-77.431-40.583-115.402-21.158c-24.887,12.719-56.005,39.86-69.362,71.62
	c-6.294,14.96-23.694,7.657-23.578-5.751c0.156-19.754,6.91-50.332,32.785-72.551c43.987-37.792,20.239-97.236-26.72-107.097
	c-41.615-8.744-90.779,0.815-118.338,25.788c-41.194,37.338-40.678,77.248-21.206,115.133c12.752,24.827,39.955,55.87,71.792,69.201
	c14.996,6.278,7.675,23.632-5.766,23.521c-19.8-0.16-50.451-6.898-72.723-32.708c-37.879-43.887-97.459-20.186-107.348,26.652
	c-8.758,41.513,0.82,90.572,25.848,118.062c37.428,41.104,77.434,40.583,115.406,21.155c24.882-12.723,56-39.861,69.364-71.617
	c6.287-14.96,23.692-7.657,23.571,5.752c-0.156,19.748-6.91,50.329-32.78,72.548c-43.994,37.796-20.24,97.238,26.714,107.102
	c41.605,8.727,90.784-0.813,118.339-25.794c41.194-37.334,40.672-77.24,21.211-115.13c-12.765-24.83-39.956-55.874-71.796-69.2
	C289.823,274.269,297.144,256.909,310.583,257.014z M241.691,272.318c-12.151-4.466-18.373-17.909-13.895-30.033
	c4.471-12.124,17.95-18.329,30.102-13.863c12.146,4.466,18.367,17.908,13.896,30.026
	C267.317,270.573,253.844,276.784,241.691,272.318z"/>
</svg>
